<svg width="87" height="32" viewBox="0 0 87 32" fill="none" xmlns="http://www.w3.org/2000/svg">
<path d="M82 0H31V32H82C84.7614 32 87 29.7614 87 27V5C87 2.23858 84.7614 0 82 0Z" fill="#0F1418"/>
<path d="M31 0H5C2.23858 0 0 2.23858 0 5V27C0 29.7614 2.23858 32 5 32H31V0Z" fill="#CB3837"/>
<path d="M19.8359 17.667C20.2953 17.3529 20.9328 17.0811 20.9328 17.0811C20.9328 17.0811 19.1187 17.4092 17.3141 17.5592C15.1063 17.742 12.7344 17.7795 11.5438 17.6201C8.72668 17.2451 13.0907 16.2092 13.0907 16.2092C13.0907 16.2092 11.3985 16.0967 9.31261 17.0998C6.85171 18.2904 15.4063 18.8342 19.8359 17.667ZM15.8328 16.1623C14.9422 14.1608 11.9376 12.403 15.8328 9.32804C20.6918 5.49372 18.2 3 18.2 3C19.2078 6.96089 14.6563 8.16087 13.011 10.6218C11.8907 12.3046 13.5594 14.1092 15.8328 16.1623ZM21.2046 7.90306C21.2093 7.90306 12.9923 9.95616 16.9156 14.4748C18.0734 15.8061 16.611 17.0061 16.611 17.0061C16.611 17.0061 19.55 15.4873 18.2 13.5889C16.9391 11.8171 15.9735 10.9358 21.2046 7.90306ZM20.9187 20.5826C20.8931 20.6272 20.8616 20.6682 20.825 20.7045C26.8389 19.1248 24.6265 15.1311 21.7531 16.1436C21.5979 16.2006 21.4638 16.3036 21.3687 16.4389C21.5365 16.3782 21.7089 16.3311 21.8843 16.2983C23.3374 15.9936 25.4233 18.2435 20.9187 20.5826ZM23.1293 23.5029C23.1293 23.5029 23.809 24.0607 22.384 24.4966C19.67 25.3169 11.0967 25.5653 8.71543 24.5294C7.85763 24.1591 9.46542 23.6388 9.97167 23.531C10.4967 23.4185 10.8013 23.4372 10.8013 23.4372C9.84979 22.7669 4.64674 24.7544 8.15763 25.3216C17.7313 26.8778 25.6136 24.6232 23.1293 23.5029ZM12.6501 21.5623C8.96106 22.5935 14.8954 24.7216 19.5922 22.7107C19.1341 22.5327 18.6919 22.3163 18.2703 22.0638C16.175 22.4622 15.2047 22.4904 13.3016 22.2747C11.7313 22.0966 12.6501 21.5623 12.6501 21.5623ZM21.0781 26.1184C17.3891 26.8122 12.8376 26.7325 10.1423 26.2872C10.1423 26.2825 10.6954 26.7419 13.536 26.9247C17.8578 27.2012 24.4952 26.77 24.6499 24.7263C24.6499 24.7263 24.3499 25.4997 21.0781 26.1184ZM19.0344 19.5467C16.2594 20.081 14.6516 20.067 12.6219 19.856C11.0517 19.692 12.0782 18.9326 12.0782 18.9326C8.00951 20.2826 14.3375 21.8107 20.0234 20.1466C19.6559 20.0169 19.3192 19.8126 19.0344 19.5467Z" fill="white"/>
<path d="M51.3911 18.5684C51.3911 18.9248 51.3228 19.2593 51.1861 19.5718C51.0542 19.8843 50.8711 20.1577 50.6367 20.3921C50.4024 20.6265 50.1289 20.812 49.8164 20.9487C49.5039 21.0806 49.1695 21.1465 48.813 21.1465H48.5127C48.1563 21.1465 47.8194 21.0806 47.502 20.9487C47.1895 20.812 46.916 20.6265 46.6817 20.3921C46.4473 20.1577 46.2617 19.8843 46.125 19.5718C45.9932 19.2593 45.9273 18.9248 45.9273 18.5684V18.1509L46.8721 17.9971V18.5684C46.8721 18.8027 46.916 19.0225 47.0039 19.2275C47.0918 19.4277 47.2114 19.606 47.3628 19.7622C47.5191 19.9136 47.6973 20.0332 47.8975 20.1211C48.1026 20.209 48.3223 20.2529 48.5567 20.2529H48.7691C48.9986 20.2529 49.2158 20.209 49.4209 20.1211C49.626 20.0332 49.8042 19.9136 49.9556 19.7622C50.107 19.606 50.2266 19.4277 50.3145 19.2275C50.4024 19.0225 50.4463 18.8027 50.4463 18.5684V10.4971H51.3911V18.5684ZM58.0824 21L57.5843 20.2529C57.3792 20.5215 57.1229 20.7388 56.8153 20.9048C56.5077 21.0659 56.1707 21.1465 55.8045 21.1465H55.5775C55.2747 21.1465 54.9891 21.0903 54.7205 20.978C54.452 20.8608 54.2176 20.7021 54.0174 20.502C53.8172 20.3018 53.6585 20.0674 53.5413 19.7988C53.429 19.5303 53.3729 19.2446 53.3729 18.9419V18.8687C53.3729 18.5659 53.429 18.2803 53.5413 18.0117C53.6585 17.7432 53.8172 17.5088 54.0174 17.3086C54.2176 17.1084 54.452 16.9521 54.7205 16.8398C54.9891 16.7227 55.2747 16.6641 55.5775 16.6641H57.4818V15.5068C57.4818 15.3262 57.4476 15.1577 57.3792 15.0015C57.3109 14.8403 57.2181 14.7012 57.1009 14.584C56.9837 14.4668 56.8446 14.374 56.6834 14.3057C56.5272 14.2373 56.3587 14.2031 56.1781 14.2031H55.6507C55.4701 14.2031 55.2992 14.2373 55.138 14.3057C54.9818 14.374 54.8451 14.4668 54.7279 14.584C54.6107 14.7012 54.5179 14.8403 54.4496 15.0015C54.3812 15.1577 54.347 15.3262 54.347 15.5068V15.7778L53.4461 15.6313V15.5581C53.4461 15.2554 53.5023 14.9697 53.6146 14.7012C53.7318 14.4326 53.8905 14.1982 54.0907 13.998C54.2909 13.7979 54.5252 13.6416 54.7938 13.5293C55.0623 13.4121 55.348 13.3535 55.6507 13.3535H56.1781C56.4808 13.3535 56.7664 13.4121 57.035 13.5293C57.3036 13.6416 57.5379 13.7979 57.7381 13.998C57.9383 14.1982 58.0946 14.4326 58.2069 14.7012C58.3241 14.9697 58.3827 15.2554 58.3827 15.5581V21H58.0824ZM57.4818 17.3672H55.5775C55.3968 17.3672 55.2259 17.4014 55.0648 17.4697C54.9085 17.5381 54.7718 17.6333 54.6546 17.7554C54.5374 17.8726 54.4447 18.0117 54.3763 18.1729C54.3079 18.3291 54.2738 18.4976 54.2738 18.6782V18.9932C54.2738 19.1738 54.3079 19.3447 54.3763 19.5059C54.4447 19.6621 54.5374 19.7988 54.6546 19.916C54.7718 20.0332 54.9085 20.126 55.0648 20.1943C55.2259 20.2627 55.3968 20.2969 55.5775 20.2969H56.1781C56.3587 20.2969 56.5272 20.2627 56.6834 20.1943C56.8446 20.126 56.9837 20.0332 57.1009 19.916C57.2181 19.7988 57.3109 19.6621 57.3792 19.5059C57.4476 19.3447 57.4818 19.1738 57.4818 18.9932V17.3672ZM62.7155 21H62.2687L59.61 13.5H60.5109L62.4665 19.1836L62.4958 19.5718L62.5251 19.1836L64.4733 13.5H65.3742L62.7155 21ZM71.3183 21L70.8203 20.2529C70.6152 20.5215 70.3589 20.7388 70.0513 20.9048C69.7436 21.0659 69.4067 21.1465 69.0405 21.1465H68.8135C68.5107 21.1465 68.2251 21.0903 67.9565 20.978C67.688 20.8608 67.4536 20.7021 67.2534 20.502C67.0532 20.3018 66.8945 20.0674 66.7773 19.7988C66.665 19.5303 66.6089 19.2446 66.6089 18.9419V18.8687C66.6089 18.5659 66.665 18.2803 66.7773 18.0117C66.8945 17.7432 67.0532 17.5088 67.2534 17.3086C67.4536 17.1084 67.688 16.9521 67.9565 16.8398C68.2251 16.7227 68.5107 16.6641 68.8135 16.6641H70.7178V15.5068C70.7178 15.3262 70.6836 15.1577 70.6152 15.0015C70.5469 14.8403 70.4541 14.7012 70.3369 14.584C70.2197 14.4668 70.0805 14.374 69.9194 14.3057C69.7632 14.2373 69.5947 14.2031 69.414 14.2031H68.8867C68.706 14.2031 68.5351 14.2373 68.374 14.3057C68.2178 14.374 68.081 14.4668 67.9638 14.584C67.8467 14.7012 67.7539 14.8403 67.6855 15.0015C67.6172 15.1577 67.583 15.3262 67.583 15.5068V15.7778L66.6821 15.6313V15.5581C66.6821 15.2554 66.7383 14.9697 66.8506 14.7012C66.9678 14.4326 67.1264 14.1982 67.3266 13.998C67.5268 13.7979 67.7612 13.6416 68.0298 13.5293C68.2983 13.4121 68.584 13.3535 68.8867 13.3535H69.414C69.7168 13.3535 70.0024 13.4121 70.271 13.5293C70.5395 13.6416 70.7739 13.7979 70.9741 13.998C71.1743 14.1982 71.3305 14.4326 71.4429 14.7012C71.56 14.9697 71.6186 15.2554 71.6186 15.5581V21H71.3183ZM70.7178 17.3672H68.8135C68.6328 17.3672 68.4619 17.4014 68.3008 17.4697C68.1445 17.5381 68.0078 17.6333 67.8906 17.7554C67.7734 17.8726 67.6806 18.0117 67.6123 18.1729C67.5439 18.3291 67.5097 18.4976 67.5097 18.6782V18.9932C67.5097 19.1738 67.5439 19.3447 67.6123 19.5059C67.6806 19.6621 67.7734 19.7988 67.8906 19.916C68.0078 20.0332 68.1445 20.126 68.3008 20.1943C68.4619 20.2627 68.6328 20.2969 68.8135 20.2969H69.414C69.5947 20.2969 69.7632 20.2627 69.9194 20.1943C70.0805 20.126 70.2197 20.0332 70.3369 19.916C70.4541 19.7988 70.5469 19.6621 70.6152 19.5059C70.6836 19.3447 70.7178 19.1738 70.7178 18.9932V17.3672Z" fill="white"/>
<path d="M82 0H5C2.23858 0 0 2.23858 0 5V27C0 29.7614 2.23858 32 5 32H82C84.7614 32 87 29.7614 87 27V5C87 2.23858 84.7614 0 82 0Z" fill="url(#paint0_linear_2_831)"/>
<defs>
<linearGradient id="paint0_linear_2_831" x1="0" y1="0" x2="0" y2="32" gradientUnits="userSpaceOnUse">
<stop stop-color="#BBBBBB" stop-opacity="0.1"/>
<stop offset="1" stop-opacity="0.1"/>
</linearGradient>
</defs>
</svg>
