<svg width="147" height="32" viewBox="0 0 147 32" fill="none" xmlns="http://www.w3.org/2000/svg">
<path d="M142 0H31V32H142C144.761 32 147 29.7614 147 27V5C147 2.23858 144.761 0 142 0Z" fill="#0F1418"/>
<path d="M31 0H5C2.23858 0 0 2.23858 0 5V27C0 29.7614 2.23858 32 5 32H31V0Z" fill="url(#paint0_linear_11_356)"/>
<path d="M31 0H5C2.23858 0 0 2.23858 0 5V27C0 29.7614 2.23858 32 5 32H31V0Z" fill="url(#paint1_linear_11_356)"/>
<path d="M27 5H5V27H27V5Z" fill="black"/>
<path d="M15.287 22.8748H7.03705V24.2498H15.287V22.8748Z" fill="white"/>
<path d="M12.9954 9.53224V7.85168H8.41211V9.53224H9.73618V15.2869H8.41211V16.9674H12.9954V15.2869H11.7223V9.53224H12.9954Z" fill="white"/>
<path d="M17.375 17.1202C16.662 17.1202 16.0509 16.9674 15.5926 16.7128C15.1342 16.4582 14.7268 16.1017 14.4213 15.7452L15.6944 14.3193C15.949 14.6248 16.2037 14.8285 16.4583 14.9813C16.7129 15.1341 17.0185 15.2359 17.324 15.2359C17.6805 15.2359 17.9861 15.1341 18.2407 14.8795C18.4444 14.6248 18.5463 14.2684 18.5463 13.7082V7.85168H20.5833V13.81C20.5833 14.3702 20.5324 14.8285 20.3796 15.2359C20.2268 15.6433 20.0231 15.9489 19.7176 16.2545C19.4629 16.5091 19.1064 16.7637 18.699 16.8656C18.2916 17.0183 17.8842 17.1202 17.375 17.1202Z" fill="white"/>
<path d="M54.8292 20V9.49707H55.774V20H54.8292ZM62.1723 20V14.5068C62.1723 14.3262 62.1381 14.1577 62.0697 14.0015C62.0014 13.8403 61.9086 13.7012 61.7914 13.584C61.6742 13.4668 61.5351 13.374 61.3739 13.3057C61.2177 13.2373 61.0492 13.2031 60.8686 13.2031H60.268C60.0873 13.2031 59.9164 13.2373 59.7553 13.3057C59.599 13.374 59.4623 13.4668 59.3451 13.584C59.2279 13.7012 59.1352 13.8403 59.0668 14.0015C58.9984 14.1577 58.9643 14.3262 58.9643 14.5068V20H58.0634V12.5H58.3637L58.8544 13.2617C59.0595 12.9834 59.3158 12.7637 59.6234 12.6025C59.9359 12.4365 60.2753 12.3535 60.6415 12.3535H60.8686C61.1713 12.3535 61.4569 12.4121 61.7255 12.5293C61.994 12.6416 62.2284 12.7979 62.4286 12.998C62.6288 13.1982 62.7851 13.4326 62.8974 13.7012C63.0145 13.9697 63.0731 14.2554 63.0731 14.5581V20H62.1723ZM67.7868 20C67.5134 20 67.2546 19.9487 67.0105 19.8462C66.7712 19.7437 66.5612 19.6021 66.3806 19.4214C66.2048 19.2407 66.0632 19.0308 65.9558 18.7915C65.8532 18.5522 65.802 18.2959 65.802 18.0225V13.3569H64.4543V12.5H65.802V10.6982L66.7029 10.5518V12.5H68.6071V13.3569H66.7029V18.0664C66.7029 18.2178 66.7297 18.3594 66.7834 18.4912C66.842 18.6182 66.9201 18.7305 67.0178 18.8281C67.1154 18.9258 67.2302 19.0039 67.362 19.0625C67.4939 19.1162 67.6355 19.1431 67.7868 19.1431H68.6071V20H67.7868ZM75.4595 17.9419C75.4595 18.2446 75.4009 18.5303 75.2837 18.7988C75.1714 19.0674 75.0152 19.3018 74.815 19.502C74.6148 19.7021 74.3804 19.8608 74.1119 19.978C73.8433 20.0903 73.5577 20.1465 73.2549 20.1465H72.6543C72.3516 20.1465 72.066 20.0903 71.7974 19.978C71.5288 19.8608 71.2945 19.7021 71.0943 19.502C70.8941 19.3018 70.7354 19.0674 70.6182 18.7988C70.5059 18.5303 70.4497 18.2446 70.4497 17.9419V14.5581C70.4497 14.2554 70.5059 13.9697 70.6182 13.7012C70.7354 13.4326 70.8941 13.1982 71.0943 12.998C71.2945 12.7979 71.5288 12.6416 71.7974 12.5293C72.066 12.4121 72.3516 12.3535 72.6543 12.3535H73.2549C73.5577 12.3535 73.8433 12.4121 74.1119 12.5293C74.3804 12.6416 74.6148 12.7979 74.815 12.998C75.0152 13.1982 75.1714 13.4326 75.2837 13.7012C75.4009 13.9697 75.4595 14.2554 75.4595 14.5581V16.3232H71.3506V17.9932C71.3506 18.1738 71.3848 18.3447 71.4532 18.5059C71.5215 18.6621 71.6143 18.7988 71.7315 18.916C71.8487 19.0332 71.9854 19.126 72.1416 19.1943C72.3028 19.2627 72.4737 19.2969 72.6543 19.2969H73.2549C73.4356 19.2969 73.604 19.2627 73.7603 19.1943C73.9214 19.126 74.0606 19.0332 74.1778 18.916C74.295 18.7988 74.3877 18.6621 74.4561 18.5059C74.5245 18.3447 74.5586 18.1738 74.5586 17.9932V17.4951L75.4595 17.6416V17.9419ZM74.5586 14.5068C74.5586 14.3262 74.5245 14.1577 74.4561 14.0015C74.3877 13.8403 74.295 13.7012 74.1778 13.584C74.0606 13.4668 73.9214 13.374 73.7603 13.3057C73.604 13.2373 73.4356 13.2031 73.2549 13.2031H72.6543C72.4737 13.2031 72.3028 13.2373 72.1416 13.3057C71.9854 13.374 71.8487 13.4668 71.7315 13.584C71.6143 13.7012 71.5215 13.8403 71.4532 14.0015C71.3848 14.1577 71.3506 14.3262 71.3506 14.5068V15.6201H74.5586V14.5068ZM77.7416 20V9.49707H78.6424V20H77.7416ZM81.2321 20V9.49707H82.133V20H81.2321ZM84.6494 10.6982V9.49707H85.6968V10.6982H84.6494ZM84.7227 20V12.5H85.6235V20H84.7227ZM92.9227 17.5684C92.9227 17.9248 92.8543 18.2593 92.7176 18.5718C92.5858 18.8843 92.4027 19.1577 92.1683 19.3921C91.9339 19.6265 91.6605 19.812 91.348 19.9487C91.0355 20.0806 90.701 20.1465 90.3445 20.1465H90.0443C89.6878 20.1465 89.3509 20.0806 89.0335 19.9487C88.721 19.812 88.4476 19.6265 88.2132 19.3921C87.9788 19.1577 87.7933 18.8843 87.6566 18.5718C87.5247 18.2593 87.4588 17.9248 87.4588 17.5684V17.1509L88.4036 16.9971V17.5684C88.4036 17.8027 88.4476 18.0225 88.5355 18.2275C88.6234 18.4277 88.743 18.606 88.8944 18.7622C89.0506 18.9136 89.2288 19.0332 89.429 19.1211C89.6341 19.209 89.8538 19.2529 90.0882 19.2529H90.3006C90.5301 19.2529 90.7474 19.209 90.9525 19.1211C91.1575 19.0332 91.3358 18.9136 91.4871 18.7622C91.6385 18.606 91.7581 18.4277 91.846 18.2275C91.9339 18.0225 91.9778 17.8027 91.9778 17.5684V9.49707H92.9227V17.5684ZM98.8418 20V9.49707H99.7866V20H98.8418ZM108.287 17.4219C108.287 17.7783 108.219 18.1128 108.082 18.4253C107.95 18.7378 107.767 19.0112 107.533 19.2456C107.298 19.48 107.022 19.6655 106.705 19.8022C106.392 19.9341 106.058 20 105.701 20H102.376V9.49707H105.701C106.058 9.49707 106.392 9.56543 106.705 9.70215C107.022 9.83398 107.298 10.0171 107.533 10.2515C107.767 10.4858 107.95 10.7617 108.082 11.0791C108.219 11.3916 108.287 11.7261 108.287 12.0825V17.4219ZM107.342 12.0825C107.342 11.8481 107.298 11.6309 107.21 11.4307C107.122 11.2256 107 11.0474 106.844 10.896C106.693 10.7397 106.514 10.6177 106.309 10.5298C106.109 10.4419 105.892 10.3979 105.658 10.3979H103.321V19.0991H105.658C105.892 19.0991 106.109 19.0552 106.309 18.9673C106.514 18.8794 106.693 18.7598 106.844 18.6084C107 18.457 107.122 18.2812 107.21 18.0811C107.298 17.876 107.342 17.6562 107.342 17.4219V12.0825ZM110.715 20V9.49707H116.626V10.3979H111.66V14.3018H115.681V15.2026H111.66V19.0991H116.626V20H110.715ZM122.556 17.5537H119.23L118.542 20H117.56L120.637 9.49707H121.135L124.226 20H123.251L122.556 17.5537ZM119.487 16.6528H122.307L120.922 11.8115L120.893 11.4233L120.864 11.8115L119.487 16.6528Z" fill="white"/>
<path d="M142 0H5C2.23858 0 0 2.23858 0 5V27C0 29.7614 2.23858 32 5 32H142C144.761 32 147 29.7614 147 27V5C147 2.23858 144.761 0 142 0Z" fill="url(#paint2_linear_11_356)"/>
<defs>
<linearGradient id="paint0_linear_11_356" x1="4.30677" y1="26.8639" x2="29.7785" y2="14.3741" gradientUnits="userSpaceOnUse">
<stop stop-color="#078EFC"/>
<stop offset="0.1062" stop-color="#15A7D3"/>
<stop offset="0.228" stop-color="#23BFAA"/>
<stop offset="0.3478" stop-color="#2DD28B"/>
<stop offset="0.4634" stop-color="#35DF74"/>
<stop offset="0.573" stop-color="#39E767"/>
<stop offset="0.6701" stop-color="#3BEA62"/>
</linearGradient>
<linearGradient id="paint1_linear_11_356" x1="6.18869" y1="7.71795" x2="24.9381" y2="45.9296" gradientUnits="userSpaceOnUse">
<stop stop-color="#FE315D"/>
<stop offset="0.0402328" stop-color="#F63462"/>
<stop offset="0.1037" stop-color="#DF3A71"/>
<stop offset="0.1667" stop-color="#C24383"/>
<stop offset="0.2912" stop-color="#AD4A91"/>
<stop offset="0.5498" stop-color="#755BB4"/>
<stop offset="0.9175" stop-color="#1D76ED"/>
<stop offset="1" stop-color="#087CFA"/>
</linearGradient>
<linearGradient id="paint2_linear_11_356" x1="0" y1="0" x2="0" y2="32" gradientUnits="userSpaceOnUse">
<stop stop-color="#BBBBBB" stop-opacity="0.1"/>
<stop offset="1" stop-opacity="0.1"/>
</linearGradient>
</defs>
</svg>
